# xmcd
#
# Track frame offsets:
#	150
#	18360
#	41527
#	58713
#	80833
#	104105
#	126622
#	143713
#	168791
#	189457
#	204446
#	226732
#	244440
#	258248
#	272780
#	289314
#	307735
#	327685
#
# Disc length: 4520 seconds
#
# Revision: 4
# Processed by: cddbd v1.5.2PL0 Copyright (c) Steve Scherf et al.
# Submitted via: audiograbber 1.83.01
#
DISCID=0f11a612
DTITLE=Tunnel Trance Force - Tunnel Trance Force Vol. 19 [CD2)
DYEAR=2001
DGENRE=Techno
TTITLE0=Technoboy - Ravers Rules (K-Traxx RMX)
TTITLE1=DJ Shoko Vs. Groundzero - Don't Stop ... Fucking Technopop (Underground
TTITLE1=Mix)
TTITLE2=Re_Animator - Rewire Your Brain (D-Gor Mix)
TTITLE3=Thomas Trouble - Echoes (Michael Fusseder RMX)
TTITLE4=Gary D. Feat. Dr. Z - My Houzze (Hardline Mix)
TTITLE5=Dave Joy - First Impression (S.H.O.K.K. Mix)
TTITLE6=Gigi Lav - The Right Way (Trance Generators Mix)
TTITLE7=DJ Dean - Don't Stop (Club Mix)
TTITLE8=Universal Dream - House Of Music (Aquaplex RMX)
TTITLE9=Klinisch Tot - Klinisch Tot (Club UK Mix)
TTITLE10=Cinderella - The Realm (DJ Spoke RMX)
TTITLE11=T-Bone - Watch Yourself
TTITLE12=Starfunk - Stupid Games (Club Mix)
TTITLE13=Ultrakomm - UK Disco (Piano Mix)
TTITLE14=DJ Centaury and Wavetraxx - Lazarus (Club Mix)
TTITLE15=Mental Miracle - Future (Original Mix)
TTITLE16=Orange Inc. - Reach Out
TTITLE17=DJ A.M. - Ritmo El Molto Forte (DJ Kim's Trance Mix)
EXTD=
EXTT0=
EXTT1=
EXTT2=
EXTT3=
EXTT4=
EXTT5=
EXTT6=
EXTT7=
EXTT8=
EXTT9=
EXTT10=
EXTT11=
EXTT12=
EXTT13=
EXTT14=
EXTT15=
EXTT16=
EXTT17=
PLAYORDER=
